# Blender v2.79 (sub 0) OBJ File: 'GeodesicIcosahedron 2 2.blend'
# www.blender.org
o Imported_Imported.012
v 0.000000 1.016760 0.000000
v 0.000000 -1.016760 0.000000
v 1.016760 0.000000 0.000000
v -1.016760 0.000000 0.000000
v 0.000000 0.000000 -1.016760
v 0.000000 0.000000 1.016760
v 0.306158 0.951981 -0.174408
v 0.306158 -0.951981 -0.174408
v 0.306158 0.951981 0.174408
v 0.306158 -0.951981 0.174408
v -0.306158 0.951981 -0.174408
v -0.306158 -0.951981 -0.174408
v -0.306158 0.951981 0.174408
v -0.306158 -0.951981 0.174408
v 0.951981 0.174408 -0.306158
v 0.951981 -0.174408 -0.306158
v 0.951981 0.174408 0.306158
v 0.951981 -0.174408 0.306158
v -0.951981 0.174408 -0.306158
v -0.951981 -0.174408 -0.306158
v -0.951981 0.174408 0.306158
v -0.951981 -0.174408 0.306158
v 0.174408 0.306158 -0.951981
v 0.174408 -0.306158 -0.951981
v 0.174408 0.306158 0.951981
v 0.174408 -0.306158 0.951981
v -0.174408 0.306158 -0.951981
v -0.174408 -0.306158 -0.951981
v -0.174408 0.306158 0.951981
v -0.174408 -0.306158 0.951981
v 0.000000 0.950044 -0.362885
v 0.000000 -0.950044 -0.362885
v 0.000000 0.950044 0.362885
v 0.000000 -0.950044 0.362885
v 0.950044 0.362885 0.000000
v 0.950044 -0.362885 0.000000
v -0.950044 0.362885 0.000000
v -0.950044 -0.362885 0.000000
v 0.362885 0.000000 -0.950044
v 0.362885 0.000000 0.950044
v -0.362885 0.000000 -0.950044
v -0.362885 0.000000 0.950044
v 0.529797 0.857229 0.000000
v 0.529797 -0.857229 0.000000
v -0.529797 0.857229 0.000000
v -0.529797 -0.857229 0.000000
v 0.857229 0.000000 -0.529797
v 0.857229 0.000000 0.529797
v -0.857229 0.000000 -0.529797
v -0.857229 0.000000 0.529797
v 0.000000 0.529797 -0.857229
v 0.000000 -0.529797 -0.857229
v 0.000000 0.529797 0.857229
v 0.000000 -0.529797 0.857229
v 0.314196 0.822576 -0.508380
v 0.314196 -0.822576 -0.508380
v 0.314196 0.822576 0.508380
v 0.314196 -0.822576 0.508380
v -0.314196 0.822576 -0.508380
v -0.314196 -0.822576 -0.508380
v -0.314196 0.822576 0.508380
v -0.314196 -0.822576 0.508380
v 0.822576 0.508380 -0.314196
v 0.822576 -0.508380 -0.314196
v 0.822576 0.508380 0.314196
v 0.822576 -0.508380 0.314196
v -0.822576 0.508380 -0.314196
v -0.822576 -0.508380 -0.314196
v -0.822576 0.508380 0.314196
v -0.822576 -0.508380 0.314196
v 0.508380 0.314196 -0.822576
v 0.508380 -0.314196 -0.822576
v 0.508380 0.314196 0.822576
v 0.508380 -0.314196 0.822576
v -0.508380 0.314196 -0.822576
v -0.508380 -0.314196 -0.822576
v -0.508380 0.314196 0.822576
v -0.508380 -0.314196 0.822576
v 0.588356 0.777572 -0.282199
v 0.588356 -0.777572 -0.282199
v 0.588356 0.777572 0.282199
v 0.588356 -0.777572 0.282199
v -0.588356 0.777572 -0.282199
v -0.588356 -0.777572 -0.282199
v -0.588356 0.777572 0.282199
v -0.588356 -0.777572 0.282199
v 0.777572 0.282199 -0.588356
v 0.777572 -0.282199 -0.588356
v 0.777572 0.282199 0.588356
v 0.777572 -0.282199 0.588356
v -0.777572 0.282199 -0.588356
v -0.777572 -0.282199 -0.588356
v -0.777572 0.282199 0.588356
v -0.777572 -0.282199 0.588356
v 0.282199 0.588356 -0.777572
v 0.282199 -0.588356 -0.777572
v 0.282199 0.588356 0.777572
v 0.282199 -0.588356 0.777572
v -0.282199 0.588356 -0.777572
v -0.282199 -0.588356 -0.777572
v -0.282199 0.588356 0.777572
v -0.282199 -0.588356 0.777572
v 0.000000 0.762765 -0.669782
v 0.000000 -0.762765 -0.669782
v 0.000000 0.762765 0.669782
v 0.000000 -0.762765 0.669782
v 0.762765 0.669782 0.000000
v 0.762765 -0.669782 0.000000
v -0.762765 0.669782 0.000000
v -0.762765 -0.669782 0.000000
v 0.669782 0.000000 -0.762765
v 0.669782 0.000000 0.762765
v -0.669782 0.000000 -0.762765
v -0.669782 0.000000 0.762765
v 0.587160 0.587160 -0.587160
v 0.587160 -0.587160 -0.587160
v 0.587160 0.587160 0.587160
v 0.587160 -0.587160 0.587160
v -0.587160 0.587160 -0.587160
v -0.587160 -0.587160 -0.587160
v -0.587160 0.587160 0.587160
v -0.587160 -0.587160 0.587160
vt 0.000000 0.000000
vt 1.000000 0.000000
vt 1.000000 1.000000
vt 0.000000 0.000000
vt 1.000000 0.000000
vt 1.000000 1.000000
vt 0.000000 0.000000
vt 1.000000 0.000000
vt 1.000000 1.000000
vt 0.000000 0.000000
vt 1.000000 0.000000
vt 1.000000 1.000000
vt 0.000000 0.000000
vt 1.000000 0.000000
vt 1.000000 1.000000
vt 0.000000 0.000000
vt 1.000000 0.000000
vt 1.000000 1.000000
vt 0.000000 0.000000
vt 1.000000 0.000000
vt 1.000000 1.000000
vt 0.000000 0.000000
vt 1.000000 0.000000
vt 1.000000 1.000000
vt 0.000000 0.000000
vt 1.000000 0.000000
vt 1.000000 1.000000
vt 0.000000 0.000000
vt 1.000000 0.000000
vt 1.000000 1.000000
vt 0.000000 0.000000
vt 1.000000 0.000000
vt 1.000000 0.000000
vt 1.000000 1.000000
vt 0.000000 0.000000
vt 1.000000 0.000000
vt 1.000000 1.000000
vt 0.000000 0.000000
vt 1.000000 0.000000
vt 1.000000 1.000000
vt 0.000000 0.000000
vt 1.000000 0.000000
vt 1.000000 1.000000
vt 0.000000 0.000000
vt 1.000000 0.000000
vt 1.000000 1.000000
vt 0.000000 0.000000
vt 1.000000 0.000000
vt 1.000000 1.000000
vt 0.000000 0.000000
vt 1.000000 0.000000
vt 1.000000 1.000000
vt 0.000000 0.000000
vt 1.000000 0.000000
vt 1.000000 1.000000
vt 0.000000 0.000000
vt 1.000000 0.000000
vt 1.000000 1.000000
vt 1.000000 0.000000
vt 1.000000 1.000000
vt 0.000000 0.000000
vt 1.000000 0.000000
vt 1.000000 1.000000
vt 0.000000 0.000000
vt 1.000000 0.000000
vt 1.000000 1.000000
vt 0.000000 0.000000
vt 1.000000 0.000000
vt 1.000000 1.000000
vt 0.000000 0.000000
vt 1.000000 0.000000
vt 1.000000 1.000000
vt 0.000000 0.000000
vt 1.000000 0.000000
vt 1.000000 1.000000
vt 0.000000 0.000000
vt 1.000000 0.000000
vt 1.000000 1.000000
vt 0.000000 0.000000
vt 1.000000 0.000000
vt 1.000000 1.000000
vt 0.000000 0.000000
vt 1.000000 0.000000
vt 1.000000 1.000000
vt 0.000000 0.000000
vt 1.000000 0.000000
vt 1.000000 1.000000
vt 1.000000 0.000000
vt 1.000000 1.000000
vt 0.000000 0.000000
vt 1.000000 0.000000
vt 1.000000 1.000000
vt 0.000000 0.000000
vt 1.000000 1.000000
vt 0.000000 0.000000
vt 1.000000 1.000000
vt 0.000000 0.000000
vt 1.000000 0.000000
vt 1.000000 1.000000
vt 0.000000 0.000000
vt 1.000000 0.000000
vt 1.000000 1.000000
vt 0.000000 0.000000
vt 1.000000 0.000000
vt 1.000000 1.000000
vt 1.000000 1.000000
vt 0.000000 0.000000
vt 1.000000 0.000000
vt 1.000000 1.000000
vt 0.000000 0.000000
vt 1.000000 1.000000
vt 0.000000 0.000000
vt 1.000000 1.000000
vt 0.000000 0.000000
vt 1.000000 0.000000
vt 0.000000 0.000000
vt 1.000000 0.000000
vt 1.000000 1.000000
vt 0.000000 0.000000
vt 1.000000 0.000000
vt 1.000000 1.000000
vt 0.000000 0.000000
vt 1.000000 0.000000
vt 1.000000 0.000000
vt 0.000000 0.000000
vt 1.000000 0.000000
vt 1.000000 1.000000
vt 0.000000 0.000000
vt 1.000000 1.000000
vt 0.000000 0.000000
vt 1.000000 0.000000
vt 1.000000 1.000000
vt 1.000000 0.000000
vt 1.000000 1.000000
vt 0.000000 0.000000
vt 1.000000 0.000000
vt 1.000000 1.000000
vt 0.000000 0.000000
vt 1.000000 0.000000
vt 1.000000 1.000000
vt 1.000000 0.000000
vt 0.000000 0.000000
vt 1.000000 0.000000
vt 1.000000 0.000000
vt 1.000000 1.000000
vt 0.000000 0.000000
vt 1.000000 0.000000
vt 0.000000 0.000000
vt 1.000000 0.000000
vt 1.000000 1.000000
vt 0.000000 0.000000
vt 1.000000 0.000000
vt 1.000000 1.000000
vt 1.000000 1.000000
vt 0.000000 0.000000
vt 1.000000 0.000000
vt 1.000000 1.000000
vt 0.000000 0.000000
vt 1.000000 1.000000
vt 0.000000 0.000000
vt 0.000000 0.000000
vt 1.000000 0.000000
vt 1.000000 1.000000
vt 0.000000 0.000000
vt 1.000000 0.000000
vt 1.000000 1.000000
vt 0.000000 0.000000
vt 1.000000 0.000000
vt 0.000000 0.000000
vt 1.000000 0.000000
vt 0.000000 0.000000
vt 0.000000 0.000000
vt 1.000000 1.000000
vt 1.000000 1.000000
vt 1.000000 0.000000
vt 1.000000 1.000000
vt 1.000000 0.000000
vt 1.000000 1.000000
vt 0.000000 0.000000
vt 1.000000 0.000000
vt 1.000000 1.000000
vt 1.000000 0.000000
vt 1.000000 1.000000
vt 0.000000 0.000000
vt 1.000000 0.000000
vt 1.000000 1.000000
vt 0.000000 0.000000
vt 1.000000 0.000000
vt 0.000000 0.000000
vt 1.000000 1.000000
vt 0.000000 0.000000
vt 0.000000 0.000000
vt 1.000000 1.000000
vt 1.000000 0.000000
vt 1.000000 1.000000
vt 0.000000 0.000000
vt 1.000000 0.000000
vt 0.000000 0.000000
vt 1.000000 1.000000
vt 0.000000 0.000000
vt 1.000000 0.000000
vt 0.000000 0.000000
vt 1.000000 0.000000
vt 0.000000 0.000000
vt 1.000000 0.000000
vt 0.000000 0.000000
vt 1.000000 0.000000
vt 1.000000 1.000000
vt 1.000000 1.000000
vt 1.000000 0.000000
vt 1.000000 1.000000
vt 0.000000 0.000000
vt 1.000000 0.000000
vt 1.000000 1.000000
vt 1.000000 0.000000
vt 0.000000 0.000000
vt 0.000000 0.000000
vt 1.000000 1.000000
vt 1.000000 0.000000
vt 1.000000 1.000000
vt 0.000000 0.000000
vt 0.000000 0.000000
vt 1.000000 0.000000
vt 0.000000 0.000000
vt 1.000000 0.000000
vt 1.000000 0.000000
vt 1.000000 0.000000
vt 1.000000 1.000000
vt 0.000000 0.000000
vt 1.000000 0.000000
vt 1.000000 1.000000
vt 1.000000 0.000000
vt 0.000000 0.000000
vt 0.000000 0.000000
vt 1.000000 0.000000
vt 1.000000 0.000000
vt 1.000000 1.000000
vt 0.000000 0.000000
vt 1.000000 1.000000
vt 1.000000 0.000000
vt 1.000000 1.000000
vt 0.000000 0.000000
vt 0.000000 0.000000
vt 1.000000 0.000000
vt 1.000000 0.000000
vt 1.000000 1.000000
vt 0.000000 0.000000
vt 1.000000 0.000000
vt 0.000000 0.000000
vt 1.000000 0.000000
vt 1.000000 0.000000
vt 1.000000 0.000000
vt 1.000000 1.000000
vt 0.000000 0.000000
vt 1.000000 1.000000
vt 1.000000 1.000000
vt 1.000000 0.000000
vt 1.000000 0.000000
vt 1.000000 1.000000
vt 1.000000 1.000000
vt 0.000000 0.000000
vt 1.000000 1.000000
vt 1.000000 1.000000
vt 0.000000 0.000000
vt 1.000000 0.000000
vt 1.000000 0.000000
vt 1.000000 0.000000
vt 0.000000 0.000000
vt 0.000000 0.000000
vt 1.000000 1.000000
vt 1.000000 1.000000
vt 0.000000 0.000000
vt 1.000000 1.000000
vt 1.000000 1.000000
vt 1.000000 1.000000
vt 1.000000 1.000000
vt 1.000000 1.000000
vt 1.000000 0.000000
vt 1.000000 1.000000
vt 1.000000 0.000000
vt 1.000000 0.000000
vt 1.000000 1.000000
vt 0.000000 0.000000
vt 0.000000 0.000000
vt 0.000000 0.000000
vt 1.000000 1.000000
vt 0.000000 0.000000
vt 0.000000 0.000000
vt 1.000000 1.000000
vt 1.000000 0.000000
vt 1.000000 1.000000
vt 0.000000 0.000000
vt 1.000000 0.000000
vt 1.000000 1.000000
vt 0.000000 0.000000
vt 1.000000 1.000000
vt 1.000000 0.000000
vt 0.000000 0.000000
vt 1.000000 0.000000
vt 0.000000 0.000000
vt 1.000000 0.000000
vt 1.000000 1.000000
vt 0.000000 0.000000
vt 0.000000 0.000000
vt 1.000000 0.000000
vt 0.000000 0.000000
vt 1.000000 0.000000
vt 1.000000 1.000000
vt 1.000000 0.000000
vt 1.000000 1.000000
vt 1.000000 1.000000
vt 1.000000 0.000000
vt 1.000000 1.000000
vn 0.7337 0.4601 -0.5000
vn 0.4058 -0.8555 -0.3217
vn -0.5181 0.1045 0.8489
vn -0.0895 0.6244 -0.7760
vn 0.3217 0.4058 0.8555
vn 0.1448 -0.4796 0.8655
vn -0.7337 -0.4601 -0.5000
vn 0.7275 -0.6566 0.1988
vn -0.4058 -0.8555 0.3217
vn 0.9208 0.0000 0.3901
vn 0.1045 -0.8489 0.5181
vn -0.3901 0.9208 0.0000
vn -0.7760 0.0895 -0.6244
vn 0.9208 0.0000 -0.3901
vn 0.1798 0.1045 -0.9781
vn -0.3901 -0.9208 0.0000
vn -0.5000 -0.7337 0.4601
vn 0.9783 0.0000 0.2070
vn -0.9781 0.1798 -0.1045
vn -0.2070 0.9783 0.0000
vn 0.3901 0.9208 0.0000
vn -0.2090 -0.9135 0.3489
vn -0.1045 0.9781 0.1798
vn 0.8555 0.3217 0.4058
vn 0.4796 -0.8655 0.1448
vn -0.7275 -0.6566 -0.1988
vn -0.3217 -0.4058 0.8555
vn 0.7275 0.6566 -0.1988
vn -0.6292 0.3955 0.6691
vn 0.9135 -0.3489 -0.2090
vn -0.8555 -0.3217 0.4058
vn 0.1988 -0.7275 0.6566
vn -0.8555 0.3217 -0.4058
vn 0.2090 0.9135 0.3489
vn 0.1448 0.4796 -0.8655
vn -0.7337 0.4601 -0.5000
vn 0.6244 0.7760 0.0895
vn -0.8655 0.1448 0.4796
vn 0.4601 -0.5000 -0.7337
vn 0.1045 0.8489 -0.5181
vn 0.2090 -0.9135 -0.3489
vn 0.4601 0.5000 0.7337
vn 0.8555 -0.3217 -0.4058
vn 0.9783 0.0000 -0.2070
vn -0.5181 -0.1045 -0.8489
vn -0.1798 0.1045 0.9781
vn -0.1045 -0.9781 -0.1798
vn 0.4058 0.8555 0.3217
vn 0.3489 0.2090 0.9135
vn 0.1798 -0.1045 0.9781
vn -0.9135 -0.3489 0.2090
vn -0.4058 0.8555 -0.3217
vn 0.6244 -0.7760 -0.0895
vn -0.9208 0.0000 -0.3901
vn 0.8655 0.1448 -0.4796
vn -0.9135 0.3489 -0.2090
vn -0.9781 -0.1798 -0.1045
vn 0.3217 -0.4058 -0.8555
vn -0.7275 0.6566 0.1988
vn 0.0895 -0.6244 -0.7760
vn -0.1988 -0.7275 -0.6566
vn 0.6566 0.1988 -0.7275
vn 0.3955 0.6691 -0.6292
vn -0.1988 0.7275 0.6566
vn -0.7760 -0.0895 0.6244
vn -0.9781 -0.1798 0.1045
vn -0.3489 0.2090 -0.9135
vn -0.9783 0.0000 0.2070
vn 0.3955 0.6691 0.6292
vn 0.1045 -0.9781 0.1798
vn -0.6691 -0.6292 -0.3955
vn 0.3955 -0.6691 0.6292
vn 0.5000 -0.7337 -0.4601
vn 0.9781 -0.1798 0.1045
vn 0.9135 0.3489 0.2090
vn 0.7760 -0.0895 -0.6244
vn -0.6566 -0.1988 -0.7275
vn 0.1045 0.9781 0.1798
vn -0.1798 -0.1045 -0.9781
vn 0.6691 -0.6292 0.3955
vn -0.1045 -0.9781 0.1798
vn -0.1045 -0.8489 -0.5181
vn -0.1448 0.4796 0.8655
vn -0.8489 0.5181 0.1045
vn -0.3955 -0.6691 0.6292
vn 0.0895 0.6244 0.7760
vn 0.2070 -0.9783 0.0000
vn -0.8489 -0.5181 -0.1045
vn 0.3901 -0.9208 0.0000
vn 0.6292 0.3955 -0.6691
vn -0.1045 0.8489 0.5181
vn 0.2070 0.9783 0.0000
vn 0.6566 -0.1988 0.7275
vn 0.5181 -0.1045 0.8489
vn 0.5000 -0.7337 0.4601
vn -0.4601 -0.5000 0.7337
vn -0.3955 0.6691 0.6292
vn -0.8655 -0.1448 -0.4796
vn -0.4601 0.5000 -0.7337
vn -0.3955 -0.6691 -0.6292
vn -0.4796 -0.8655 -0.1448
vn 0.8655 -0.1448 0.4796
vn 0.8489 0.5181 -0.1045
vn 0.0000 -0.2070 -0.9783
vn -0.6691 0.6292 0.3955
vn 0.4796 0.8655 -0.1448
vn -0.9783 0.0000 -0.2070
vn -0.3489 -0.2090 0.9135
vn 0.8489 -0.5181 0.1045
vn 0.0000 0.2070 0.9783
vn -0.3217 0.4058 -0.8555
vn -0.6691 -0.6292 0.3955
vn 0.6691 0.6292 -0.3955
vn 0.9781 0.1798 -0.1045
vn -0.6292 0.3955 -0.6691
vn 0.3489 -0.2090 -0.9135
vn 0.4601 0.5000 -0.7337
vn -0.6292 -0.3955 -0.6691
vn 0.5181 0.1045 -0.8489
vn -0.2070 -0.9783 0.0000
vn 0.7760 0.0895 0.6244
vn -0.9208 0.0000 0.3901
vn -0.5000 -0.7337 -0.4601
vn -0.6244 -0.7760 0.0895
vn 0.0000 0.2070 -0.9783
vn -0.5000 0.7337 -0.4601
vn -0.6244 0.7760 -0.0895
vn 0.0000 -0.2070 0.9783
vn -0.7337 0.4601 0.5000
vn -0.1448 -0.4796 -0.8655
vn -0.2090 0.9135 -0.3489
vn 0.0000 -0.3901 0.9208
vn -0.6566 0.1988 0.7275
vn -0.4796 0.8655 0.1448
vn 0.1988 0.7275 -0.6566
vn 0.6292 -0.3955 0.6691
vn 0.7337 -0.4601 -0.5000
vn 0.0000 0.3901 0.9208
vn -0.0895 -0.6244 0.7760
vn -0.9781 0.1798 0.1045
vn -0.1798 -0.1045 0.9781
vn 0.1045 0.9781 -0.1798
vn 0.0000 -0.3901 -0.9208
vn 0.0000 0.3901 -0.9208
vn 0.3955 -0.6691 -0.6292
vn 0.1798 0.1045 0.9781
vn -0.4601 0.5000 0.7337
s off
f 87/1/1 115/2/1 63/3/1
f 8/4/2 56/5/2 80/6/2
f 42/7/3 77/8/3 114/9/3
f 51/10/4 99/11/4 103/12/4
f 28/13/5 76/14/5 100/15/5
f 26/16/6 54/17/6 98/18/6
f 92/19/7 120/20/7 68/21/7
f 67/22/8 83/23/8 109/24/8
f 7/25/9 55/26/9 79/27/9
f 19/28/10 20/29/10 49/30/10
f 31/31/11 59/32/11 103/12/11
f 8/4/12 10/33/12 44/34/12
f 48/35/13 90/36/13 112/37/13
f 15/38/14 16/39/14 47/40/14
f 5/41/15 23/42/15 39/43/15
f 12/44/16 14/45/16 46/46/16
f 86/47/17 62/48/17 122/49/17
f 3/50/18 17/51/18 18/52/18
f 18/53/19 3/54/19 36/55/19
f 1/56/20 11/57/20 13/58/20
f 7/25/21 9/59/21 43/60/21
f 14/61/22 34/62/22 62/63/22
f 13/64/23 33/65/23 1/66/23
f 17/67/24 65/68/24 89/69/24
f 10/70/25 44/71/25 82/72/25
f 65/73/26 81/74/26 107/75/26
f 23/76/27 71/77/27 95/78/27
f 70/79/28 86/80/28 110/81/28
f 88/82/29 72/83/29 116/84/29
f 16/85/30 36/86/30 64/87/30
f 15/38/31 63/88/31 87/89/31
f 59/90/32 99/11/32 103/12/32
f 18/53/33 66/91/33 90/92/33
f 9/93/34 33/65/34 57/94/34
f 30/95/35 54/17/35 102/96/35
f 91/97/36 67/98/36 119/99/36
f 34/100/11 58/101/11 106/102/11
f 43/103/37 81/74/37 107/75/37
f 16/85/38 47/104/38 88/105/38
f 14/61/9 62/48/9 86/106/9
f 11/107/25 45/108/25 83/109/25
f 96/110/39 72/83/39 116/84/39
f 34/100/40 62/48/40 106/102/40
f 13/64/41 33/65/41 61/111/41
f 100/112/42 76/14/42 120/113/42
f 54/114/4 98/115/4 106/102/4
f 21/116/43 69/117/43 93/118/43
f 4/119/44 21/120/44 22/121/44
f 40/122/45 73/123/45 112/37/45
f 5/41/46 24/124/46 39/43/46
f 66/125/8 82/126/8 108/127/8
f 39/128/3 72/83/3 111/129/3
f 2/130/47 12/131/47 32/132/47
f 9/93/48 57/133/48 81/134/48
f 25/135/49 40/136/49 73/137/49
f 6/138/50 26/139/50 40/140/50
f 15/38/51 35/141/51 63/3/51
f 10/70/52 58/101/52 82/72/52
f 45/142/53 85/143/53 109/24/53
f 11/107/52 59/32/52 83/109/52
f 17/67/54 18/144/54 48/145/54
f 44/146/53 80/147/53 108/127/53
f 27/148/6 51/149/6 99/150/6
f 22/151/55 50/152/55 94/153/55
f 18/53/56 36/86/56 66/154/56
f 38/155/57 4/156/57 20/157/57
f 29/158/58 77/8/58 101/159/58
f 64/160/59 80/147/59 108/127/59
f 23/76/35 51/149/35 95/78/35
f 53/161/60 101/162/60 105/163/60
f 60/164/61 100/165/61 104/166/61
f 71/167/62 87/168/62 111/129/62
f 62/169/63 122/170/63 102/96/63
f 61/171/64 101/162/64 105/163/64
f 47/172/65 87/168/65 111/129/65
f 22/151/66 4/156/66 38/173/66
f 26/16/67 40/136/67 74/174/67
f 3/50/68 15/175/68 16/176/68
f 27/148/67 41/177/67 75/178/67
f 97/179/69 117/180/69 57/94/69
f 1/56/70 11/57/70 31/181/70
f 19/28/56 37/182/56 67/183/56
f 115/184/17 79/185/17 55/186/17
f 84/187/71 68/188/71 120/113/71
f 118/189/72 98/115/72 58/190/72
f 80/191/73 56/5/73 116/84/73
f 89/192/7 117/180/7 65/193/7
f 4/119/74 19/194/74 37/195/74
f 20/196/75 38/197/75 68/21/75
f 90/198/36 66/91/36 118/199/36
f 15/38/55 47/104/55 87/89/55
f 52/200/60 96/201/60 104/166/60
f 50/202/76 93/203/76 114/9/76
f 68/204/26 84/205/26 110/81/26
f 76/206/77 92/207/77 113/208/77
f 3/50/57 17/51/57 35/209/57
f 8/4/41 32/210/41 56/211/41
f 33/212/78 9/59/78 1/66/78
f 12/44/48 60/213/48 84/214/48
f 6/138/79 25/215/79 40/140/79
f 82/216/80 66/91/80 118/199/80
f 121/217/29 93/203/29 77/218/29
f 14/61/81 2/219/81 34/220/81
f 69/221/59 85/143/59 109/24/59
f 32/222/82 60/213/82 104/166/82
f 29/158/83 53/223/83 101/159/83
f 36/224/84 64/225/84 108/127/84
f 115/184/85 55/26/85 95/78/85
f 53/161/86 97/226/86 105/163/86
f 2/130/87 8/227/87 10/228/87
f 35/229/88 65/68/88 107/75/88
f 11/107/89 13/230/89 45/231/89
f 2/130/70 10/33/70 34/220/70
f 47/172/76 88/232/76 111/129/76
f 99/233/72 59/32/72 119/99/72
f 94/234/90 78/235/90 122/49/90
f 33/212/91 61/236/91 105/163/91
f 2/130/92 12/131/92 14/237/92
f 85/238/73 61/236/73 121/239/73
f 22/151/31 70/240/31 94/153/31
f 87/1/90 71/77/90 115/241/90
f 74/242/93 90/36/93 112/37/93
f 41/243/94 75/244/94 113/208/94
f 29/158/46 42/245/46 6/246/46
f 118/189/95 58/101/95 82/72/95
f 71/167/96 115/2/96 95/78/96
f 101/247/97 61/236/97 121/239/97
f 17/67/98 48/248/98 89/69/98
f 118/189/99 98/115/99 74/174/99
f 100/112/100 60/213/100 120/113/100
f 75/249/93 91/250/93 113/208/93
f 12/44/101 46/251/101 84/214/101
f 19/28/102 49/252/102 91/253/102
f 38/155/103 70/240/103 110/81/103
f 17/67/75 35/141/75 65/193/75
f 56/254/64 96/201/64 104/166/64
f 5/41/104 24/124/104 28/255/104
f 25/135/5 73/123/5 97/256/5
f 85/238/105 69/117/105 121/239/105
f 7/25/106 43/257/106 79/27/106
f 4/119/107 19/194/107 20/157/107
f 21/116/38 50/152/38 93/118/38
f 23/76/108 39/258/108 71/259/108
f 36/224/109 66/91/109 108/127/109
f 99/233/99 75/244/99 119/99/99
f 6/138/110 25/215/110 29/260/110
f 27/148/111 75/244/111 99/150/111
f 9/93/101 43/257/101 81/134/101
f 58/261/32 98/115/32 106/102/32
f 32/222/91 56/5/91 104/166/91
f 86/47/112 122/170/112 70/262/112
f 13/64/2 61/236/2 85/263/2
f 115/184/113 79/185/113 63/3/113
f 78/264/62 94/265/62 114/9/62
f 3/50/114 15/175/114 35/209/114
f 7/25/22 31/266/22 55/186/22
f 118/189/115 74/267/115 90/92/115
f 49/268/13 91/250/13 113/208/13
f 24/269/58 72/83/58 96/270/58
f 24/269/116 39/258/116 72/271/116
f 35/229/103 63/88/103 107/75/103
f 40/122/94 74/267/94 112/37/94
f 122/272/117 78/235/117 102/96/117
f 2/130/23 8/227/23 32/132/23
f 92/19/118 76/14/118 120/113/118
f 97/179/42 73/123/42 117/273/42
f 12/44/34 32/210/34 60/274/34
f 39/128/119 71/77/119 111/129/119
f 20/196/24 68/188/24 92/275/24
f 30/95/108 42/245/108 78/276/108
f 28/13/49 41/177/49 76/277/49
f 1/56/120 7/278/120 9/279/120
f 48/35/121 89/280/121 112/37/121
f 21/116/122 22/281/122 50/282/122
f 81/283/123 117/180/123 57/94/123
f 43/103/124 79/185/124 107/75/124
f 20/196/98 49/252/98 92/275/98
f 116/284/105 80/147/105 64/87/105
f 83/285/80 67/98/80 119/99/80
f 6/138/125 26/139/125 30/286/125
f 42/7/119 78/235/119 114/9/119
f 63/287/28 79/185/28 107/75/28
f 83/285/126 59/32/126 119/99/126
f 73/288/77 89/280/77 112/37/77
f 45/142/127 83/23/127 109/24/127
f 29/158/116 42/245/116 77/218/116
f 30/95/27 78/235/27 102/96/27
f 5/41/128 23/42/128 27/289/128
f 24/269/83 52/290/83 96/270/83
f 116/284/129 64/225/129 88/105/129
f 94/234/1 122/170/1 70/262/1
f 25/135/130 53/223/130 97/256/130
f 41/243/45 76/14/45 113/208/45
f 11/107/131 31/266/131 59/291/131
f 46/292/37 84/205/37 110/81/37
f 50/202/65 94/265/65 114/9/65
f 26/16/132 30/293/132 54/294/132
f 72/295/133 88/232/133 111/129/133
f 8/4/134 44/71/134 80/6/134
f 38/155/88 68/188/88 110/81/88
f 26/16/111 74/267/111 98/18/111
f 13/64/134 45/108/134 85/263/134
f 21/116/30 37/182/30 69/296/30
f 49/268/121 92/207/121 113/208/121
f 62/169/135 102/297/135 106/102/135
f 57/298/61 97/226/61 105/163/61
f 31/31/40 55/26/40 103/12/40
f 75/249/136 119/299/136 91/253/136
f 18/53/102 48/248/102 90/92/102
f 52/200/86 100/165/86 104/166/86
f 93/300/137 69/117/137 121/239/137
f 24/269/138 28/301/138 52/302/138
f 89/192/118 73/123/118 117/273/118
f 37/303/109 67/98/109 109/24/109
f 55/304/135 95/305/135 103/12/135
f 44/146/127 82/126/127 108/127/127
f 28/13/130 52/290/130 100/15/130
f 77/306/133 93/203/133 114/9/133
f 54/114/139 102/297/139 106/102/139
f 51/10/139 95/305/139 103/12/139
f 46/292/124 86/80/124 110/81/124
f 4/119/140 21/120/140 37/195/140
f 42/7/141 30/293/141 6/246/141
f 16/85/43 64/225/43 88/105/43
f 1/56/142 7/278/142 31/181/142
f 84/187/123 120/20/123 60/274/123
f 19/28/33 67/98/33 91/253/33
f 25/135/143 29/307/143 53/308/143
f 23/76/144 27/309/144 51/310/144
f 27/148/50 41/177/50 5/311/50
f 81/283/71 65/68/71 117/273/71
f 3/50/140 16/39/140 36/55/140
f 33/212/82 57/133/82 105/163/82
f 116/284/145 56/5/145 96/270/145
f 22/151/51 38/197/51 70/262/51
f 37/303/84 69/117/84 109/24/84
f 10/70/131 34/62/131 58/190/131
f 28/13/146 5/312/146 41/313/146
f 14/61/106 46/251/106 86/106/106
f 121/217/147 77/8/147 101/159/147
