# Blender v2.79 (sub 0) OBJ File: ''
# www.blender.org
v -1.414214 1.414214 0.000999
v -1.111141 1.662939 0.000999
v -0.001000 0.001000 0.001000
v -1.662940 0.001000 1.111140
v -1.414214 0.001000 1.414213
v -0.001000 1.111140 1.662938
v -0.001000 0.765367 1.847758
v -0.390181 1.961571 0.000999
v -0.001000 2.000000 0.000999
v -2.000000 0.001000 0.000999
v -1.961571 0.390181 0.000999
v -1.847759 0.765367 0.001000
v -1.662940 1.111140 0.000999
v -0.765367 1.847759 0.000999
v -0.390181 0.001000 1.961571
v -0.765367 0.001000 1.847759
v -1.111141 0.001000 1.662939
v -1.847759 0.001000 0.765366
v -1.961571 0.001000 0.390180
v -0.001000 0.001000 1.999998
v -0.001000 0.390181 1.961569
v -0.001000 1.961571 0.390180
v -0.001000 1.847759 0.765366
v -0.001000 1.662939 1.111139
v -0.001000 1.414214 1.414213
v -0.149316 1.847759 0.750661
v -0.216773 1.662939 1.089790
v -0.275899 1.414214 1.387040
v -0.324423 1.111140 1.630986
v -0.360480 0.765367 1.812255
v -0.382683 0.390181 1.923879
v -0.076121 1.961571 0.382683
v -0.149316 1.961571 0.360480
v -0.292893 1.847759 0.707107
v -0.425215 1.662939 1.026560
v -0.541196 1.414214 1.306563
v -0.636379 1.111140 1.536355
v -0.707107 0.765367 1.707107
v -0.750661 0.390181 1.812255
v -0.923880 1.111140 1.382683
v -1.026560 0.765367 1.536355
v -1.089790 0.390181 1.630986
v -0.216773 1.961571 0.324423
v -0.425215 1.847759 0.636379
v -0.617317 1.662939 0.923879
v -0.785695 1.414214 1.175876
v -0.541197 1.847759 0.541196
v -0.785695 1.662939 0.785695
v -1.000000 1.414214 1.000000
v -1.175876 1.111140 1.175875
v -1.306563 0.765367 1.306563
v -1.387040 0.390181 1.387040
v -0.275900 1.961571 0.275899
v -1.536356 0.765367 1.026560
v -1.630986 0.390181 1.089790
v -0.324424 1.961571 0.216772
v -0.636380 1.847759 0.425215
v -0.923880 1.662939 0.617316
v -1.175876 1.414214 0.785695
v -1.382684 1.111140 0.923879
v -0.707107 1.847759 0.292893
v -1.026560 1.662939 0.425215
v -1.306563 1.414214 0.541196
v -1.536356 1.111140 0.636379
v -1.707107 0.765367 0.707107
v -1.812255 0.390181 0.750660
v -0.360480 1.961571 0.149315
v -1.812255 0.765367 0.360480
v -1.923880 0.390181 0.382683
v -0.382684 1.961571 0.076120
v -0.750661 1.847759 0.149315
v -1.089791 1.662939 0.216772
v -1.387040 1.414214 0.275899
v -1.630987 1.111140 0.324423
vt 0.106000 0.146400
vt 0.160900 0.084300
vt 0.362100 0.500000
vt 0.160900 0.584300
vt 0.362100 1.000000
vt 0.106000 0.646400
vt 0.423100 0.277800
vt 0.389600 0.191300
vt 0.724100 0.000000
vt 0.291400 0.009600
vt 0.362100 0.000000
vt 0.000000 0.500000
vt 0.007000 0.402500
vt 0.027600 0.308700
vt 0.061000 0.222200
vt 0.223500 0.038100
vt 0.007000 0.902500
vt 0.027600 0.808700
vt 0.061000 0.722200
vt 0.223500 0.538100
vt 0.291400 0.509600
vt 0.362100 0.500000
vt 0.000000 1.000000
vt 0.362100 0.000000
vt 0.369000 0.097500
vt 0.724100 0.500000
vt 0.653500 0.490400
vt 0.585600 0.461900
vt 0.523000 0.415700
vt 0.468100 0.353600
vt 0.724100 0.777100
vt 0.694900 0.683900
vt 0.721500 0.679600
vt 0.677800 0.592300
vt 0.716400 0.586100
vt 0.659800 0.507900
vt 0.709000 0.500000
vt 0.961300 0.777800
vt 0.918500 0.681500
vt 0.976300 0.688500
vt 0.923800 0.585600
vt 0.988000 0.593300
vt 0.927800 0.487700
vt 0.996000 0.495900
vt 0.930500 0.391700
vt 1.000000 0.400100
vt 0.724100 0.874700
vt 0.710600 0.779300
vt 0.859600 0.388900
vt 0.697500 0.785000
vt 0.669200 0.695200
vt 0.640500 0.608700
vt 0.612400 0.528800
vt 0.912200 0.771900
vt 0.859500 0.679200
vt 0.858200 0.583000
vt 0.858300 0.484900
vt 0.862000 0.769900
vt 0.801600 0.681500
vt 0.793800 0.585600
vt 0.789900 0.487700
vt 0.789900 0.391700
vt 0.685400 0.794200
vt 0.645500 0.713100
vt 0.606000 0.634700
vt 0.568500 0.561900
vt 0.624500 0.737000
vt 0.575600 0.669400
vt 0.529800 0.606000
vt 0.766200 0.777800
vt 0.746900 0.688500
vt 0.733100 0.593300
vt 0.725400 0.495900
vt 0.724100 0.400100
vt 0.674700 0.806300
vt 0.977200 0.299600
vt 0.930300 0.196700
vt 0.991000 0.204400
vt 0.998700 0.107000
vt 0.934200 0.098800
vt 0.934200 0.002800
vt 1.000000 0.011200
vt 0.665900 0.821100
vt 0.607200 0.765900
vt 0.550500 0.711300
vt 0.497800 0.659400
vt 0.911400 0.383000
vt 0.922600 0.292600
vt 0.594200 0.798700
vt 0.531600 0.758900
vt 0.473800 0.720000
vt 0.862100 0.381000
vt 0.864600 0.290300
vt 0.865900 0.194100
vt 0.865800 0.096100
vt 0.864500 0.000000
vt 0.659200 0.837800
vt 0.800300 0.196700
vt 0.796300 0.098800
vt 0.793600 0.002800
vt 0.655000 0.855900
vt 0.586000 0.834100
vt 0.519700 0.810400
vt 0.458600 0.785500
vt 0.805600 0.292600
vt 0.582900 0.870900
vt 0.515100 0.863700
vt 0.452800 0.853300
vt 0.762800 0.388900
vt 0.747800 0.299600
vt 0.736100 0.204400
vt 0.728100 0.107000
vt 0.724100 0.011200
vt 0.653400 0.874600
vt 0.812800 0.771900
vt 0.957900 0.388900
vt 0.811900 0.383000
vn 0.0000 -0.0000 -1.0000
vn 0.0000 -1.0000 -0.0000
vn 1.0000 0.0000 0.0000
vn 0.6784 0.7197 0.1477
vn -0.0758 0.9217 0.3804
vn 0.6716 0.6829 0.2874
vn -0.1093 0.8286 0.5490
vn 0.6654 0.6185 0.4179
vn -0.1387 0.7041 0.6965
vn 0.6599 0.5290 0.5336
vn -0.1627 0.5528 0.8173
vn 0.6554 0.4175 0.6294
vn -0.1805 0.3805 0.9070
vn 0.6520 0.2885 0.7012
vn -0.1915 0.1941 0.9621
vn 0.6500 0.1475 0.7455
vn -0.1484 -0.6492 0.7460
vn 0.5445 -0.5444 0.6380
vn 0.5519 0.6250 -0.5520
vn -0.0394 0.9796 0.1972
vn -0.2911 -0.6491 0.7028
vn -0.0770 0.9796 0.1858
vn -0.1484 0.9217 0.3584
vn -0.2142 0.8286 0.5172
vn -0.2718 0.7041 0.6561
vn -0.3189 0.5528 0.7699
vn -0.3539 0.3805 0.8544
vn -0.3754 0.1941 0.9063
vn -0.4630 0.5528 0.6929
vn -0.5138 0.3805 0.7689
vn -0.5450 0.1941 0.8157
vn -0.4226 -0.6492 0.6324
vn -0.1117 0.9796 0.1672
vn -0.2155 0.9217 0.3225
vn -0.3110 0.8286 0.4654
vn -0.3945 0.7041 0.5905
vn -0.2743 0.9217 0.2743
vn -0.3958 0.8286 0.3958
vn -0.5021 0.7041 0.5021
vn -0.5893 0.5528 0.5893
vn -0.6539 0.3805 0.6539
vn -0.6937 0.1941 0.6937
vn -0.5379 -0.6492 0.5378
vn -0.1422 0.9796 0.1422
vn -0.7689 0.3805 0.5138
vn -0.8157 0.1941 0.5450
vn -0.6325 -0.6491 0.4226
vn -0.1672 0.9796 0.1117
vn -0.3225 0.9217 0.2155
vn -0.4654 0.8286 0.3110
vn -0.5905 0.7041 0.3945
vn -0.6929 0.5528 0.4630
vn -0.3584 0.9217 0.1484
vn -0.5172 0.8286 0.2142
vn -0.6561 0.7041 0.2718
vn -0.7699 0.5528 0.3189
vn -0.8544 0.3805 0.3539
vn -0.9063 0.1941 0.3754
vn -0.7028 -0.6491 0.2911
vn -0.1858 0.9796 0.0770
vn -0.9070 0.3805 0.1805
vn -0.9621 0.1941 0.1915
vn -0.7460 -0.6492 0.1484
vn -0.1972 0.9796 0.0394
vn -0.3804 0.9217 0.0758
vn -0.5490 0.8286 0.1093
vn -0.6965 0.7041 0.1387
vn -0.8173 0.5528 0.1627
vn -0.2874 0.6829 -0.6716
vn -0.4179 0.6185 -0.6654
vn -0.5336 0.5290 -0.6599
vn -0.6294 0.4175 -0.6554
vn -0.7012 0.2885 -0.6520
vn -0.7455 0.1475 -0.6500
vn -0.6380 -0.5444 -0.5445
vn -0.1477 0.7197 -0.6784
s off
f 1/1/1 2/2/1 3/3/1
f 4/4/2 3/5/2 5/6/2
f 6/7/3 7/8/3 3/9/3
f 8/10/1 9/11/1 3/3/1
f 3/3/1 10/12/1 11/13/1
f 11/13/1 12/14/1 3/3/1
f 13/15/1 1/1/1 3/3/1
f 2/2/1 14/16/1 3/3/1
f 8/10/1 3/3/1 14/16/1
f 12/14/1 13/15/1 3/3/1
f 15/17/2 16/18/2 3/5/2
f 17/19/2 5/6/2 3/5/2
f 4/4/2 18/20/2 3/5/2
f 19/21/2 10/22/2 3/5/2
f 3/5/2 20/23/2 15/17/2
f 16/18/2 17/19/2 3/5/2
f 18/20/2 19/21/2 3/5/2
f 20/24/3 3/9/3 21/25/3
f 9/26/3 22/27/3 3/9/3
f 23/28/3 24/29/3 3/9/3
f 25/30/3 6/7/3 3/9/3
f 7/8/3 21/25/3 3/9/3
f 3/9/3 22/27/3 23/28/3
f 24/29/3 25/30/3 3/9/3
s 1
f 22/31/4 26/32/5 23/33/6
f 23/33/6 27/34/7 24/35/8
f 24/35/8 28/36/9 25/37/10
f 25/38/10 29/39/11 6/40/12
f 6/40/12 30/41/13 7/42/14
f 7/42/14 31/43/15 21/44/16
f 21/44/16 15/45/17 20/46/18
f 22/31/4 9/47/19 32/48/20
f 31/43/15 16/49/21 15/45/17
f 32/48/20 9/47/19 33/50/22
f 26/32/5 33/50/22 34/51/23
f 26/32/5 35/52/24 27/34/7
f 27/34/7 36/53/25 28/36/9
f 28/54/9 37/55/26 29/39/11
f 29/39/11 38/56/27 30/41/13
f 30/41/13 39/57/28 31/43/15
f 36/58/25 40/59/29 37/55/26
f 37/55/26 41/60/30 38/56/27
f 39/57/28 41/60/30 42/61/31
f 39/57/28 17/62/32 16/49/21
f 33/50/22 9/47/19 43/63/33
f 34/51/23 43/63/33 44/64/34
f 35/52/24 44/64/34 45/65/35
f 35/52/24 46/66/36 36/53/25
f 43/63/33 47/67/37 44/64/34
f 44/64/34 48/68/38 45/65/35
f 45/65/35 49/69/39 46/66/36
f 40/59/29 49/70/39 50/71/40
f 40/59/29 51/72/41 41/60/30
f 42/61/31 51/72/41 52/73/42
f 17/62/32 52/73/42 5/74/43
f 43/63/33 9/47/19 53/75/44
f 50/76/40 54/77/45 51/78/41
f 52/79/42 54/77/45 55/80/46
f 52/79/42 4/81/47 5/82/43
f 53/75/44 9/47/19 56/83/48
f 53/75/44 57/84/49 47/67/37
f 47/67/37 58/85/50 48/68/38
f 48/68/38 59/86/51 49/69/39
f 50/76/40 59/87/51 60/88/52
f 56/83/48 61/89/53 57/84/49
f 58/85/50 61/89/53 62/90/54
f 59/86/51 62/90/54 63/91/55
f 60/88/52 63/92/55 64/93/56
f 60/88/52 65/94/57 54/77/45
f 55/80/46 65/94/57 66/95/58
f 55/80/46 18/96/59 4/81/47
f 56/83/48 9/47/19 67/97/60
f 64/93/56 68/98/61 65/94/57
f 66/95/58 68/98/61 69/99/62
f 66/95/58 19/100/63 18/96/59
f 67/97/60 9/47/19 70/101/64
f 67/97/60 71/102/65 61/89/53
f 61/89/53 72/103/66 62/90/54
f 62/90/54 73/104/67 63/91/55
f 63/92/55 74/105/68 64/93/56
f 72/103/66 14/106/69 2/107/70
f 73/104/67 2/107/70 1/108/71
f 74/105/68 1/109/71 13/110/72
f 68/98/61 13/110/72 12/111/73
f 69/99/62 12/111/73 11/112/74
f 19/100/63 11/112/74 10/113/75
f 70/101/64 9/47/19 8/114/76
f 71/102/65 8/114/76 14/106/69
f 22/31/4 32/48/20 26/32/5
f 23/33/6 26/32/5 27/34/7
f 24/35/8 27/34/7 28/36/9
f 25/38/10 28/54/9 29/39/11
f 6/40/12 29/39/11 30/41/13
f 7/42/14 30/41/13 31/43/15
f 21/44/16 31/43/15 15/45/17
f 31/43/15 39/57/28 16/49/21
f 26/32/5 32/48/20 33/50/22
f 26/32/5 34/51/23 35/52/24
f 27/34/7 35/52/24 36/53/25
f 28/54/9 36/58/25 37/55/26
f 29/39/11 37/55/26 38/56/27
f 30/41/13 38/56/27 39/57/28
f 36/58/25 46/115/36 40/59/29
f 37/55/26 40/59/29 41/60/30
f 39/57/28 38/56/27 41/60/30
f 39/57/28 42/61/31 17/62/32
f 34/51/23 33/50/22 43/63/33
f 35/52/24 34/51/23 44/64/34
f 35/52/24 45/65/35 46/66/36
f 43/63/33 53/75/44 47/67/37
f 44/64/34 47/67/37 48/68/38
f 45/65/35 48/68/38 49/69/39
f 40/59/29 46/115/36 49/70/39
f 40/59/29 50/71/40 51/72/41
f 42/61/31 41/60/30 51/72/41
f 17/62/32 42/61/31 52/73/42
f 50/76/40 60/88/52 54/77/45
f 52/79/42 51/78/41 54/77/45
f 52/79/42 55/80/46 4/81/47
f 53/75/44 56/83/48 57/84/49
f 47/67/37 57/84/49 58/85/50
f 48/68/38 58/85/50 59/86/51
f 50/76/40 49/116/39 59/87/51
f 56/83/48 67/97/60 61/89/53
f 58/85/50 57/84/49 61/89/53
f 59/86/51 58/85/50 62/90/54
f 60/88/52 59/87/51 63/92/55
f 60/88/52 64/93/56 65/94/57
f 55/80/46 54/77/45 65/94/57
f 55/80/46 66/95/58 18/96/59
f 64/93/56 74/105/68 68/98/61
f 66/95/58 65/94/57 68/98/61
f 66/95/58 69/99/62 19/100/63
f 67/97/60 70/101/64 71/102/65
f 61/89/53 71/102/65 72/103/66
f 62/90/54 72/103/66 73/104/67
f 63/92/55 73/117/67 74/105/68
f 72/103/66 71/102/65 14/106/69
f 73/104/67 72/103/66 2/107/70
f 74/105/68 73/117/67 1/109/71
f 68/98/61 74/105/68 13/110/72
f 69/99/62 68/98/61 12/111/73
f 19/100/63 69/99/62 11/112/74
f 71/102/65 70/101/64 8/114/76
